@startuml
class InstructorController {
    + InstructorController(unitOfWork:IUnitOfWork, userManager:UserManager<AppUser>, cloudinary:ICloudinaryService, uploadingService:IUploadingService)
    + <<async>> GetInstructorCourses(index:int, instructorId:int) : Task<IActionResult>
    + <<async>> GetCourseStatistics(courseId:int) : Task<IActionResult>
    + <<async>> AddCourse(course:RegisterCourseRequest) : Task<IActionResult>
    + <<async>> EditCourse(course:EditCourseRequest) : Task<IActionResult>
    + <<async>> EditCourseImage(image:IFormFile, courseId:int, instructorId:int) : Task<IActionResult>
    + <<async>> DeleteCourse(req:DeleteCourseRequest) : Task<IActionResult>
}
class "UserManager`1"<T> {
}
ControllerBase <|-- InstructorController
InstructorController --> "_unitOfWork" IUnitOfWork
InstructorController --> "_userManager<AppUser>" "UserManager`1"
InstructorController --> "_cloudinary" ICloudinaryService
InstructorController --> "_uploadingService" IUploadingService
@enduml
