@startuml
class GoogleController {
    + GoogleController(options:IOptions<MailingOptions>, userManager:UserManager<AppUser>, loginService:Application.Services.Interfaces.IAuthenticationService, jwtOptions:IOptions<JwtOptions>, cloudinaryService:ICloudinaryService, jsonOptions:IOptions<JsonOptions>)
    + CreateAuthorizationCode() : IActionResult
    + <<async>> GetGmailRefreshTokenCallback(code:string) : Task<IActionResult>
    + Login() : IActionResult
    + <<async>> Callback() : Task<IActionResult>
    - GetHtmlContent(response:IApiResponse) : ContentResult
    + AccessDenied() : IActionResult
}
class "UserManager`1"<T> {
}
ControllerBase <|-- GoogleController
GoogleController --> "_options" MailingOptions
GoogleController --> "_userManager<AppUser>" "UserManager`1"
GoogleController --> "_jwtOptions" JwtOptions
GoogleController --> "_cloudinaryService" ICloudinaryService
GoogleController --> "_jsonSerializerOptions" JsonSerializerOptions
@enduml
