@startuml
interface ITagsRepository {
    AddTag(tag:string) : Tag
    GetTagByValueAsync(value:string) : Task<Tag?>
    EditTagAsync(id:int, newValue:string) : Task<Tag>
}
class TagsRepository {
    + TagsRepository(context:AppDbContext)
    + AddTag(tag:string) : Tag
    + <<async>> GetTagByValueAsync(value:string) : Task<Tag?>
    + <<async>> EditTagAsync(id:int, newValue:string) : Task<Tag>
    + <<async>> GetAllAsync(id:int) : Task<List<Tag>>
}
class "IRepository`1"<T> {
}
class "Repository`1"<T> {
}
"IRepository`1" "<Tag>" <|-- ITagsRepository
"Repository`1" "<Tag>" <|-- TagsRepository
ITagsRepository <|-- TagsRepository
@enduml
