@startuml
interface ITokenRepository {
    DeleteRefreshToken(tokenId:int) : void
    GetUserRefreshToken(tokenId:int) : Task<RefreshToken?>
}
class TokenRepository {
    + TokenRepository(context:AppDbContext)
    + DeleteRefreshToken(tokenId:int) : void
    + <<async>> GetUserRefreshToken(tokenId:int) : Task<RefreshToken?>
}
class "IRepository`1"<T> {
}
class "Repository`1"<T> {
}
"IRepository`1" "<RefreshToken>" <|-- ITokenRepository
"Repository`1" "<RefreshToken>" <|-- TokenRepository
ITokenRepository <|-- TokenRepository
@enduml
